PathFileType	4	(X/Y/Z)	./resultDataOpenSim/trcMotMarkerGrf/sub09/qtm-13-05.trc
DataRate	CameraRate	NumFrames	NumMarkers	Units	OrigDataRate	OrigDataStartFrame	OrigNumFrames
250.000000	250.000000	11	24	m	250.000000	442	504
Frame#	Time	L.Toe.Tip			R.Toe.Tip			L.Ankle.Lat			R.Ankle.Lat			L.Ankle.Med			R.Ankle.Med			L.Heel			R.Heel			L.Knee.Lat			R.Knee.Lat			L.Knee.Med			R.Knee.Med			L.Thigh.Upper			R.Thigh.Upper			L.ASIS			R.ASIS			V.Sacral			L.Acromium			R.Acromium			C7			L.Elbow			R.Elbow			L.Wrist.Lat			R.Wrist.Lat
		X1	Y1	Z1	X2	Y2	Z2	X3	Y3	Z3	X4	Y4	Z4	X5	Y5	Z5	X6	Y6	Z6	X7	Y7	Z7	X8	Y8	Z8	X9	Y9	Z9	X10	Y10	Z10	X11	Y11	Z11	X12	Y12	Z12	X13	Y13	Z13	X14	Y14	Z14	X15	Y15	Z15	X16	Y16	Z16	X17	Y17	Z17	X18	Y18	Z18	X19	Y19	Z19	X20	Y20	Z20	X21	Y21	Z21	X22	Y22	Z22	X23	Y23	Z23	X24	Y24	Z24

442	1.764	1.8119039	0.11502727	-0.090332234	1.1287559	0.040305783	0.064539779	1.6591263	0.083158701	-0.10973802	0.9933858	0.09140422	0.094550521	1.6846755	0.11294728	-0.018423777	1.02311	0.12818989	0.0053125618	1.616724	0.019381912	-0.052682584	0.9215528	0.092293966	0.040680619	1.5197044	0.47949039	-0.1409435	1.2494146	0.4784143	0.15798654	1.529938	0.47403217	-0.01407069	1.2338981	0.47085406	0.032631532	1.3412163	0.85479994	-0.16932578	1.3009828	0.8799021	0.20163122	1.4093731	0.94891018	-0.10806553	1.4057248	0.96187074	0.13409304	1.2369636	1.001053	-0.00014449297	1.3707435	1.4042112	-0.16797903	1.3644391	1.4227785	0.16336636	1.3001543	1.4614337	-0.0026090635	1.2144928	1.0711347	-0.22687128	1.2321838	1.083497	0.26190072	1.3421718	0.8408895	-0.2723977	1.40163	0.86429087	0.27412124
443	1.768	1.8142573	0.11000863	-0.089997659	1.1290295	0.040422111	0.064725411	1.6610151	0.080851401	-0.10929888	0.9945015	0.093292277	0.095036001	1.6868714	0.11049785	-0.017952335	1.0246686	0.12972958	0.0058392805	1.6172782	0.01844577	-0.052437359	0.92270912	0.095080527	0.041140819	1.5265063	0.47890911	-0.14138897	1.2542335	0.47759556	0.15829116	1.5372812	0.47414815	-0.014627442	1.2397566	0.46981518	0.032842569	1.3466117	0.85445229	-0.17031036	1.3068432	0.87895188	0.20096816	1.4153922	0.94828227	-0.10882788	1.4117031	0.9608492	0.13346327	1.24289	1.0001043	-0.00077539632	1.376046	1.403428	-0.16860612	1.3693459	1.4218717	0.1627646	1.3051347	1.4604918	-0.0032996806	1.2201699	1.0701632	-0.22776493	1.2372358	1.0825833	0.26074911	1.3479799	0.84001881	-0.27304445	1.4059461	0.86325778	0.27421407
444	1.772	1.8167121	0.1044445	-0.089643021	1.12933	0.040521057	0.064784674	1.6628899	0.078775977	-0.10872798	0.99585432	0.095297493	0.095566108	1.6891341	0.10832398	-0.017372134	1.0263495	0.13134231	0.0063672066	1.6177309	0.017996223	-0.052035549	0.92397866	0.097989957	0.041548482	1.5331903	0.47828967	-0.14194246	1.2593447	0.47680648	0.15860797	1.5444629	0.47417238	-0.015303723	1.2455963	0.46872456	0.032939295	1.3519436	0.85410253	-0.17134411	1.3127628	0.87801194	0.20028564	1.4213898	0.94770733	-0.10958472	1.4177195	0.95983901	0.13281215	1.2488171	0.99918665	-0.0013601456	1.3813416	1.4026608	-0.16924507	1.374281	1.4209744	0.16213668	1.310098	1.4595576	-0.0039835801	1.2258869	1.0691961	-0.22867229	1.2424212	1.0817286	0.2596708	1.3538261	0.83916056	-0.27368747	1.4102132	0.86223539	0.27431263
445	1.776	1.8194945	0.09842508	-0.089318124	1.1296625	0.040626803	0.064663083	1.6649079	0.077145124	-0.10807405	0.99787595	0.097475913	0.096212955	1.6917497	0.10656808	-0.0167685	1.0281589	0.13301273	0.0068999904	1.6183146	0.018220747	-0.05144132	0.92536288	0.10102338	0.041910253	1.5396514	0.47767088	-0.14258129	1.264509	0.47599906	0.15897045	1.5514832	0.47410678	-0.01607736	1.2515597	0.46758374	0.033081056	1.3572588	0.85372825	-0.17238273	1.3187716	0.8770627	0.19956572	1.4273366	0.94719202	-0.1103155	1.4237663	0.95884217	0.13213784	1.25472	0.99833535	-0.0018950933	1.3866316	1.401916	-0.16989943	1.3792429	1.4200856	0.16148515	1.3150442	1.4586576	-0.0046867716	1.2316401	1.068236	-0.22958987	1.2476901	1.0809284	0.25870401	1.3597143	0.8383117	-0.27432864	1.4144199	0.86122674	0.27441529
446	1.78	1.8227202	0.092344327	-0.088993903	1.1300241	0.040766801	0.064429995	1.6671993	0.076061588	-0.10747433	1.000773	0.099842416	0.097001191	1.6948609	0.10520782	-0.016269208	1.0300985	0.13473084	0.0074484875	1.6191829	0.019125674	-0.050765809	0.92687198	0.10418077	0.04225228	1.5457719	0.47712456	-0.14319989	1.2696001	0.47515715	0.15938827	1.5583785	0.4739729	-0.016883983	1.2576607	0.46639925	0.033349119	1.3625915	0.85331238	-0.17338148	1.3249344	0.87607805	0.19879268	1.4332203	0.94674827	-0.1110146	1.4298341	0.95786071	0.13144073	1.2605824	0.99758532	-0.0023910813	1.3919182	1.4012019	-0.17057311	1.3842207	1.4192144	0.16082311	1.3199949	1.457838	-0.0054166775	1.2374189	1.0672877	-0.23050646	1.2530031	1.0801592	0.25784307	1.3656381	0.83747275	-0.27496862	1.4185802	0.86022951	0.27450479
447	1.784	1.8262929	0.086700948	-0.08861363	1.1304001	0.040945075	0.064250221	1.6698236	0.075444231	-0.10708896	1.0040642	0.10232526	0.097839849	1.6983685	0.10409842	-0.015975246	1.0321632	0.13649759	0.0080256617	1.6203765	0.020472948	-0.050216441	0.92851624	0.1074654	0.042612459	1.5514857	0.47674706	-0.14367056	1.274719	0.47431044	0.15983092	1.5651852	0.47383267	-0.017650226	1.2637857	0.46517354	0.033681162	1.3679682	0.85285649	-0.17430884	1.3312779	0.87504469	0.19796891	1.4390441	0.9463831	-0.1116925	1.4359166	0.95689346	0.13072592	1.2663987	0.99695364	-0.0028709634	1.397201	1.4005237	-0.17126915	1.3891993	1.4183803	0.16016545	1.3249866	1.4571352	-0.00615356	1.2432147	1.0663509	-0.23141149	1.2582963	1.0793984	0.25705137	1.3715963	0.83664456	-0.27560934	1.4227292	0.85923879	0.27455988
448	1.788	1.829936	0.081777601	-0.088165016	1.1307739	0.041134786	0.064235016	1.6727385	0.075083819	-0.10700949	1.0068794	0.10481108	0.09859682	1.7019794	0.10310156	-0.015912961	1.0343463	0.13832144	0.0086388605	1.6218248	0.021913221	-0.049962465	0.9303004	0.11088856	0.043027354	1.5568941	0.47664216	-0.14397969	1.2799763	0.47348267	0.16027059	1.5718658	0.47379744	-0.018355221	1.2699519	0.46389949	0.034003969	1.3734332	0.85239473	-0.17516694	1.3377064	0.87397112	0.19712528	1.4448177	0.94609752	-0.11236729	1.4420062	0.95594204	0.13000013	1.2721703	0.99643207	-0.0033524436	1.4024756	1.3998842	-0.1719898	1.3941785	1.4175964	0.15952028	1.3300465	1.4565528	-0.006873819	1.2490358	1.0654195	-0.23229409	1.2634342	1.0786395	0.25625971	1.3775908	0.83583019	-0.27625033	1.4268951	0.8582523	0.27457293
449	1.792	1.833361	0.077537956	-0.087652477	1.131136	0.041303593	0.064386792	1.6758027	0.074784645	-0.10722217	1.008679	0.10721955	0.099224795	1.7053818	0.10217051	-0.01604617	1.0366514	0.14021266	0.0092885536	1.6233811	0.023194666	-0.050044227	0.93223316	0.1144655	0.043512697	1.5623455	0.4768993	-0.14429062	1.285406	0.47266097	0.16069324	1.5782208	0.47398356	-0.01908343	1.2763171	0.46257361	0.034298606	1.3790527	0.85199309	-0.17599274	1.3440692	0.8728736	0.19629978	1.4505519	0.94589793	-0.11305442	1.4480862	0.95501915	0.12927083	1.2778937	0.99600136	-0.0038468268	1.4077386	1.3992894	-0.17273502	1.3991701	1.4168625	0.15888832	1.3351765	1.4560742	-0.0075807974	1.2549024	1.0644918	-0.23314421	1.2681983	1.077906	0.2553817	1.3836211	0.8350361	-0.27688817	1.4310792	0.85727068	0.27455164
450	1.796	1.836405	0.073751983	-0.087052013	1.131494	0.041446631	0.064654107	1.6788292	0.074460576	-0.1076431	1.0095405	0.10953907	0.099762265	1.7084189	0.10133557	-0.016321794	1.0390979	0.14217969	0.0099711694	1.6248877	0.024252188	-0.050401503	0.93433774	0.11820991	0.04405221	1.5682934	0.47756181	-0.14481069	1.2911198	0.47183837	0.16106531	1.5839049	0.47443815	-0.020011437	1.2829724	0.46121539	0.034578027	1.3848783	0.85173679	-0.17683087	1.3502988	0.87176395	0.19550526	1.4562571	0.94580256	-0.11375762	1.4541329	0.95414533	0.12854504	1.2835602	0.99564577	-0.0043617482	1.4129917	1.398753	-0.17350131	1.404175	1.4161819	0.15826452	1.3403563	1.4556868	-0.0083068749	1.2608269	1.0635801	-0.23396247	1.2724771	1.0772413	0.25436664	1.3896865	0.83426971	-0.27752209	1.4352558	0.85629718	0.2745069
451	1.8	1.8390309	0.070156902	-0.086353647	1.1318826	0.04159904	0.064960643	1.681652	0.074119349	-0.10817685	1.0101327	0.11187066	0.10027306	1.7111008	0.1006288	-0.016694864	1.0417117	0.14422955	0.010681967	1.6262273	0.025147763	-0.0509703	0.93665419	0.122132	0.044602499	1.5750134	0.4785919	-0.14561521	1.2972784	0.47103458	0.16134986	1.5888044	0.47514442	-0.021247667	1.2898585	0.45986352	0.034853073	1.3909112	0.85170753	-0.17770184	1.3564134	0.87065564	0.1947284	1.461942	0.94583564	-0.1144655	1.460125	0.95333916	0.12782615	1.2891802	0.99535233	-0.0048764469	1.4182386	1.398291	-0.17428117	1.4091784	1.4155755	0.15764178	1.3455522	1.4553817	-0.0090817995	1.2668082	1.0627053	-0.23476199	1.2765508	1.0766737	0.25325578	1.3957857	0.83353854	-0.2781544	1.4393975	0.85534118	0.27444196
452	1.804	1.8412548	0.066566168	-0.085606582	1.1323463	0.041805201	0.065236892	1.684164	0.073788304	-0.10875317	1.0112867	0.11438648	0.10080426	1.7134597	0.100018	-0.017123145	1.0445154	0.14636738	0.011416057	1.6273383	0.025971396	-0.051713711	0.93923185	0.1262338	0.045107491	1.5824612	0.47986515	-0.14662299	1.3039097	0.47027164	0.1615623	1.5935411	0.47611591	-0.022624866	1.2968735	0.45855646	0.035126856	1.397097	0.85195301	-0.17859073	1.3624626	0.86956246	0.1939543	1.4676082	0.94601838	-0.11516054	1.466051	0.95261039	0.1271127	1.2947819	0.99510749	-0.0053424555	1.4234802	1.3979128	-0.17506176	1.414165	1.4150727	0.15701547	1.3507282	1.4551429	-0.0099038385	1.2728418	1.0618843	-0.23555472	1.2809312	1.0761992	0.25215229	1.4019124	0.83285188	-0.27878438	1.4434972	0.85441773	0.27435343
